<?xml version="1.0" encoding="UTF-8" standalone="no"?>
<!-- Created with Inkscape (http://www.inkscape.org/) -->

<svg
   width="183.3886mm"
   height="183.3886mm"
   viewBox="0 0 183.3886 183.3886"
   version="1.1"
   id="svg1"
   xml:space="preserve"
   inkscape:version="1.3.2 (1:1.3.2+202311252150+091e20ef0f)"
   sodipodi:docname="pallas_puzzles_logo.svg"
   xmlns:inkscape="http://www.inkscape.org/namespaces/inkscape"
   xmlns:sodipodi="http://sodipodi.sourceforge.net/DTD/sodipodi-0.dtd"
   xmlns="http://www.w3.org/2000/svg"
   xmlns:svg="http://www.w3.org/2000/svg"><sodipodi:namedview
     id="namedview1"
     pagecolor="#ffffff"
     bordercolor="#000000"
     borderopacity="0.25"
     inkscape:showpageshadow="2"
     inkscape:pageopacity="0.0"
     inkscape:pagecheckerboard="0"
     inkscape:deskcolor="#d1d1d1"
     inkscape:document-units="mm"
     inkscape:zoom="0.18519888"
     inkscape:cx="461.66585"
     inkscape:cy="469.76525"
     inkscape:window-width="2248"
     inkscape:window-height="1376"
     inkscape:window-x="0"
     inkscape:window-y="27"
     inkscape:window-maximized="0"
     inkscape:current-layer="g1" /><defs
     id="defs1"><style
       id="style1">.cls-1{fill:#5e97f6;}.cls-1,.cls-2,.cls-3,.cls-4,.cls-5,.cls-6,.cls-7,.cls-8,.cls-9{stroke:#dce0df;stroke-linejoin:round;}.cls-2{fill:#2a56c6;}.cls-3{fill:#00796b;}.cls-4{fill:#3367d6;}.cls-5{fill:#26a69a;}.cls-6{fill:#9c27b0;}.cls-7{fill:#6a1b9a;}.cls-8{fill:#00695c;}.cls-9{fill:#ea80fc;}</style><clipPath
       clipPathUnits="userSpaceOnUse"
       id="clipPath114"><path
         d="M 244.97188,-77.404805 324.0284,1.6517172 C 376.73275,-136.6972 523.86572,10.435773 385.51681,63.140121 l 79.05652,79.056519 -79.05652,79.05652 C 332.81246,82.904252 185.67949,230.03722 324.0284,282.74157 l -79.05652,79.05652 -79.05652,-79.05652 C 113.21101,421.09048 -33.921958,273.95751 104.42695,221.25316 L 25.370432,142.19664 104.42695,63.140121 C 157.1313,201.48903 304.26427,54.356065 165.91536,1.6517172 Z"
         stroke="#000000"
         stroke-width="2"
         stroke-linecap="round"
         stroke-linejoin="round"
         id="path114"
         style="fill:none;stroke-width:17.4298;stroke-dasharray:none" /></clipPath></defs><g
     inkscape:label="Layer 1"
     inkscape:groupmode="layer"
     id="layer1"
     transform="translate(-26.6114,-26.247026)"><g
       style="fill:none"
       id="g1"
       transform="matrix(8.8194444,0,0,8.8194444,12.472367,36.352891)"><path
         d="m 12,-0.74902781 3.6,3.60000001 c 2.4,-6.3 9.1,0.4 2.8,2.8 l 3.6,3.6 -3.6,3.5999998 c -2.4,-6.2999998 -9.1,0.4 -2.8,2.8 l -3.6,3.6 -3.6,-3.6 c -2.4,6.3 -9.09999997,-0.4 -2.8,-2.8 L 2,9.2509722 l 3.6,-3.6 c 2.4,6.2999998 9.1,-0.4 2.8,-2.8 z"
         stroke="#000000"
         stroke-width="2"
         stroke-linecap="round"
         stroke-linejoin="round"
         id="path115"
         style="fill:#d1d2ff;stroke-width:0.793701;stroke-dasharray:none;stroke:#000000;stroke-opacity:1;fill-opacity:1" /><g
         id="Layer_1-2"
         data-name="Layer 1"
         transform="matrix(0.04553704,0,0,0.04553704,0.84470561,2.7757579)"
         clip-path="url(#clipPath114)"><polygon
           class="cls-1"
           points="100.5,130.4 50.5,130.4 25.5,173.71 75.5,173.71 "
           id="polygon1" /><polygon
           class="cls-1"
           points="50.5,217.01 0.5,217.01 25.5,173.71 75.5,173.71 "
           id="polygon2" /><polygon
           class="cls-1"
           points="100.5,217.01 125.5,173.71 75.5,173.71 50.5,217.01 "
           id="polygon3" /><polygon
           class="cls-1"
           points="150.5,217.01 175.5,173.71 125.5,173.71 100.5,217.01 "
           id="polygon4" /><polygon
           class="cls-1"
           points="200.5,130.4 150.5,130.4 125.5,173.71 175.5,173.71 "
           id="polygon5" /><polygon
           class="cls-1"
           points="225.5,87.1 175.5,87.1 150.5,130.4 200.5,130.4 "
           id="polygon6" /><polygon
           class="cls-1"
           points="250.5,43.8 200.5,43.8 175.5,87.1 225.5,87.1 "
           id="polygon7" /><polygon
           class="cls-1"
           points="275.5,0.5 225.5,0.5 200.5,43.8 250.5,43.8 "
           id="polygon8" /><polygon
           class="cls-2"
           points="50.5,217.01 0.5,217.01 25.5,260.31 75.5,260.31 "
           id="polygon9" /><polygon
           class="cls-2"
           points="100.5,217.01 125.5,260.31 75.5,260.31 50.5,217.01 "
           id="polygon10" /><polygon
           class="cls-2"
           points="150.5,217.01 175.5,260.31 125.5,260.31 100.5,217.01 "
           id="polygon11" /><polygon
           class="cls-3"
           points="175.5,260.31 200.5,217.01 175.5,173.71 150.5,217.01 "
           id="polygon12" /><polygon
           class="cls-3"
           points="250.5,130.4 225.5,87.1 200.5,130.4 "
           id="polygon13" /><polygon
           class="cls-3"
           points="275.5,87.1 250.5,43.8 225.5,87.1 250.5,130.4 "
           id="polygon14" /><polygon
           class="cls-4"
           points="125.5,173.71 100.5,130.4 75.5,173.71 "
           id="polygon15" /><polygon
           class="cls-5"
           points="225.5,173.71 250.5,130.4 200.5,130.4 175.5,173.71 "
           id="polygon16" /><polygon
           class="cls-5"
           points="275.5,173.71 300.5,130.4 250.5,130.4 225.5,173.71 "
           id="polygon17" /><polygon
           class="cls-6"
           points="325.5,87.1 350.5,43.8 325.5,0.5 300.5,43.8 "
           id="polygon18" /><polygon
           class="cls-6"
           points="350.5,130.4 375.5,87.1 350.5,43.8 325.5,87.1 "
           id="polygon19" /><polygon
           class="cls-6"
           points="375.5,173.71 400.5,130.4 375.5,87.1 350.5,130.4 "
           id="polygon20" /><polygon
           class="cls-6"
           points="400.5,217.01 425.5,173.71 400.5,130.4 375.5,173.71 "
           id="polygon21" /><polygon
           class="cls-6"
           points="425.5,260.31 450.5,217.01 425.5,173.71 400.5,217.01 "
           id="polygon22" /><polygon
           class="cls-6"
           points="450.5,43.8 425.5,0.5 400.5,43.8 425.5,87.1 "
           id="polygon23" /><polygon
           class="cls-6"
           points="400.5,130.4 375.5,87.1 400.5,43.8 425.5,87.1 "
           id="polygon24" /><polygon
           class="cls-6"
           points="375.5,173.71 350.5,130.4 325.5,173.71 350.5,217.01 "
           id="polygon25" /><polygon
           class="cls-6"
           points="350.5,217.01 325.5,260.31 300.5,217.01 325.5,173.71 "
           id="polygon26" /><polygon
           class="cls-7"
           points="325.5,260.31 275.5,260.31 250.5,217.01 300.5,217.01 "
           id="polygon27" /><polygon
           class="cls-8"
           points="250.5,217.01 225.5,173.71 175.5,173.71 200.5,217.01 "
           id="polygon28" /><polygon
           class="cls-8"
           points="275.5,173.71 225.5,173.71 250.5,217.01 "
           id="polygon29" /><polygon
           class="cls-8"
           points="325.5,87.1 275.5,87.1 300.5,130.4 350.5,130.4 "
           id="polygon30" /><polygon
           class="cls-8"
           points="325.5,87.1 300.5,43.8 250.5,43.8 275.5,87.1 "
           id="polygon31" /><polygon
           class="cls-8"
           points="375.5,260.31 425.5,260.31 400.5,217.01 350.5,217.01 "
           id="polygon32" /><polygon
           class="cls-8"
           points="375.5,173.71 350.5,217.01 400.5,217.01 "
           id="polygon33" /><polygon
           class="cls-9"
           points="300.5,43.8 325.5,0.5 275.5,0.5 250.5,43.8 "
           id="polygon34" /><polygon
           class="cls-9"
           points="300.5,217.01 325.5,173.71 275.5,173.71 250.5,217.01 "
           id="polygon35" /><polygon
           class="cls-9"
           points="325.5,173.71 350.5,130.4 300.5,130.4 275.5,173.71 "
           id="polygon36" /><polygon
           class="cls-9"
           points="400.5,43.8 425.5,0.5 375.5,0.5 350.5,43.8 "
           id="polygon37" /><polygon
           class="cls-9"
           points="375.5,87.1 350.5,43.8 400.5,43.8 "
           id="polygon38" /></g><path
         d="m 12,-0.74902781 3.6,3.60000001 c 2.4,-6.3 9.1,0.4 2.8,2.8 l 3.6,3.6 -3.6,3.5999998 c -2.4,-6.2999998 -9.1,0.4 -2.8,2.8 l -3.6,3.6 -3.6,-3.6 c -2.4,6.3 -9.09999997,-0.4 -2.8,-2.8 L 2,9.2509722 l 3.6,-3.6 c 2.4,6.2999998 9.1,-0.4 2.8,-2.8 z"
         stroke="#000000"
         stroke-width="2"
         stroke-linecap="round"
         stroke-linejoin="round"
         id="path1"
         style="fill:none;stroke-width:0.793701;stroke-dasharray:none" /></g></g></svg>
